<svg width="56" height="56" viewBox="0 0 56 56" fill="none" xmlns="http://www.w3.org/2000/svg">
<g clip-path="url(#clip0_392_1169)">
<path d="M46.2391 47.2685C46.2391 49.5626 45.3263 51.7627 43.7015 53.3849C42.0767 55.007 39.8731 55.9184 37.5753 55.9184C35.2775 55.9184 33.0738 55.007 31.449 53.3849C29.8243 51.7627 28.9115 49.5626 28.9115 47.2685C28.9115 44.4128 27.7752 41.6741 25.7527 39.6548C23.7301 37.6355 20.987 36.5011 18.1267 36.5011C15.8289 36.5011 13.6252 35.5898 12.0005 33.9676C10.3757 32.3455 9.46289 30.1453 9.46289 27.8513C9.46289 25.5572 10.3757 23.3571 12.0005 21.7349C13.6252 20.1128 15.8289 19.2014 18.1267 19.2014C20.987 19.2014 23.7301 18.067 25.7527 16.0477C27.7752 14.0285 28.9115 11.2897 28.9115 8.43402C28.9115 6.72324 29.4196 5.05089 30.3716 3.62843C31.3236 2.20597 32.6767 1.0973 34.2598 0.442617C35.8429 -0.212068 37.5849 -0.383363 39.2655 -0.0496071C40.9461 0.284149 42.4899 1.10797 43.7015 2.31767C44.9132 3.52737 45.7383 5.06862 46.0726 6.74652C46.4069 8.42443 46.2353 10.1636 45.5796 11.7442C44.9238 13.3247 43.8134 14.6756 42.3886 15.6261C40.9639 16.5765 39.2888 17.0838 37.5753 17.0838C34.715 17.0838 31.9718 18.2183 29.9493 20.2376C27.9267 22.2568 26.7905 24.9956 26.7905 27.8513C26.7905 30.707 27.9267 33.4457 29.9493 35.465C31.9718 37.4843 34.715 38.6187 37.5753 38.6187C39.8731 38.6187 42.0767 39.53 43.7015 41.1522C45.3263 42.7743 46.2391 44.9744 46.2391 47.2685Z" fill="#FBE200"/>
<path d="M46.2417 27.849C46.2425 29.5604 45.7349 31.2336 44.7831 32.657C43.8313 34.0804 42.478 35.1899 40.8945 35.8453C39.311 36.5007 37.5684 36.6725 35.887 36.3389C34.2057 36.0054 32.6613 35.1815 31.449 33.9715C30.2368 32.7614 29.4112 31.2197 29.0767 29.5411C28.7422 27.8626 28.9139 26.1227 29.57 24.5416C30.2261 22.9605 31.3371 21.6092 32.7625 20.6586C34.188 19.708 35.8638 19.2008 37.5779 19.2012C39.8751 19.2022 42.0778 20.1136 43.7023 21.7351C45.3268 23.3566 46.2401 25.5556 46.2417 27.849Z" fill="#212121"/>
</g>
<defs>
<clipPath id="clip0_392_1169">
<rect width="56" height="56" fill="white"/>
</clipPath>
</defs>
</svg>
