<svg width="1000" height="1000" viewBox="0 0 1000 1000" fill="none" xmlns="http://www.w3.org/2000/svg">
<path d="M376.123 768.23H416.698" stroke="#FFD600" stroke-width="9.3077" stroke-miterlimit="10" stroke-linecap="round"/>
<path d="M449.86 767.225L453.231 761.085H454.567L450.446 768.317V772.666H449.29V768.317L445.169 761.085H446.537L449.86 767.225Z" fill="white"/>
<path d="M469.374 771.997C469.33 773.496 468.904 774.655 468.094 775.476C467.287 776.295 466.158 776.705 464.716 776.705C463.889 776.705 463.143 776.537 462.475 776.2C461.807 775.865 461.279 775.386 460.895 774.767C460.508 774.148 460.315 773.438 460.315 772.633C460.315 772.091 460.413 771.476 460.608 770.792C460.804 770.108 461.055 769.468 461.36 768.87L462.254 769.294C461.972 769.847 461.751 770.406 461.586 770.971C461.425 771.537 461.344 772.063 461.344 772.551C461.344 773.138 461.481 773.659 461.758 774.115C462.035 774.571 462.428 774.925 462.938 775.174C463.449 775.425 464.041 775.548 464.715 775.548C467.277 775.548 468.494 774.164 468.362 771.395C468.255 768.931 468.159 766.85 468.078 765.156C467.996 763.462 467.924 762.339 467.859 761.785L468.885 761.573C468.939 762.085 469.037 763.853 469.178 766.883L469.293 769.522C469.325 770.043 469.393 770.446 469.495 770.727C469.6 771.009 469.763 771.213 469.984 771.337C470.205 771.462 470.519 771.525 470.921 771.525H471.1L471.166 772.095L471.1 772.665H470.921C470.279 772.665 469.765 772.442 469.374 771.997Z" fill="white"/>
<path d="M482.91 772.396C482.563 772.217 482.267 771.961 482.03 771.624C481.814 771.938 481.534 772.189 481.19 772.373C480.85 772.557 480.483 772.655 480.092 772.666H480.027C479.45 772.655 478.989 772.492 478.642 772.178C478.295 771.863 478.072 771.424 477.974 770.858C477.746 771.379 477.423 771.812 477.004 772.152C476.587 772.494 476.138 772.666 475.661 772.666H475.629C475.108 772.666 474.686 772.506 474.368 772.185C474.046 771.866 473.865 771.438 473.821 770.907C473.483 771.482 473.078 771.919 472.608 772.217C472.136 772.517 471.61 772.666 471.035 772.666H470.97L470.905 772.096L470.97 771.526H471.052C471.475 771.526 471.868 771.426 472.234 771.224C472.597 771.023 472.885 770.754 473.104 770.416C473.311 770.123 473.474 769.816 473.593 769.49C473.711 769.164 473.842 768.766 473.984 768.301L474.945 768.399C474.835 768.811 474.752 769.162 474.691 769.448C474.633 769.737 474.603 770.02 474.603 770.304C474.603 771.119 474.949 771.526 475.645 771.526H475.661C476.301 771.526 476.855 771.119 477.323 770.304C477.465 770.055 477.579 769.744 477.674 769.376C477.765 769.006 477.86 768.582 477.958 768.105L478.903 768.171C478.891 768.224 478.849 768.429 478.78 768.79C478.71 769.148 478.675 769.499 478.675 769.848C478.675 770.968 479.136 771.526 480.059 771.526C480.373 771.526 480.676 771.449 480.964 771.298C481.251 771.144 481.465 770.956 481.607 770.728C481.476 770.314 481.286 769.43 481.037 768.073L481.998 767.829C482.235 769.185 482.426 770.06 482.568 770.451C482.686 770.81 482.866 771.077 483.105 771.256C483.345 771.435 483.664 771.526 484.066 771.526H484.148L484.213 772.096L484.148 772.666H484.066C483.643 772.666 483.256 772.576 482.91 772.396Z" fill="white"/>
<path d="M486.231 763.496L486.573 763.154L487.6 764.18L486.573 765.206L485.547 764.18L486.231 763.496ZM483.967 771.526H484.814C485.727 771.526 486.392 771.396 486.811 771.135C487.227 770.874 487.437 770.472 487.437 769.93C487.425 769.56 487.316 769.041 487.111 768.373C486.906 767.705 486.72 767.193 486.557 766.835L487.486 766.344C487.693 766.779 487.902 767.366 488.121 768.106C488.337 768.843 488.447 769.467 488.447 769.979C488.435 770.87 488.119 771.54 487.495 771.989C486.869 772.441 485.975 772.666 484.814 772.666H483.967L483.967 771.526Z" fill="white"/>
<path d="M322.836 770.687H329.808V771.665H321.436V770.785L328.147 761.061H321.615V760.084H329.547V760.931L322.836 770.687Z" fill="white"/>
<path d="M345.088 770.996C345.044 772.495 344.618 773.654 343.808 774.475C343.001 775.294 341.872 775.704 340.429 775.704C339.603 775.704 338.856 775.536 338.188 775.199C337.521 774.864 336.992 774.385 336.608 773.766C336.222 773.147 336.029 772.435 336.029 771.632C336.029 771.09 336.127 770.475 336.322 769.791C336.518 769.107 336.769 768.467 337.074 767.869L337.967 768.292C337.686 768.846 337.465 769.405 337.299 769.97C337.139 770.536 337.057 771.062 337.057 771.55C337.057 772.137 337.195 772.658 337.472 773.114C337.749 773.57 338.142 773.924 338.651 774.173C339.163 774.422 339.754 774.547 340.429 774.547C342.991 774.547 344.208 773.163 344.075 770.394C343.968 767.93 343.873 765.849 343.792 764.155C343.71 762.461 343.638 761.337 343.573 760.784L344.599 760.572C344.653 761.081 344.75 762.852 344.892 765.882L345.006 768.521C345.039 769.042 345.106 769.444 345.209 769.726C345.313 770.008 345.476 770.212 345.697 770.338C345.918 770.464 346.232 770.524 346.635 770.524H346.814L346.879 771.094L346.814 771.664H346.635C345.993 771.664 345.479 771.441 345.088 770.996Z" fill="white"/>
<path d="M358.622 771.395C358.275 771.216 357.982 770.96 357.743 770.62C357.526 770.937 357.247 771.188 356.905 771.372C356.563 771.556 356.195 771.654 355.804 771.665H355.739C355.164 771.654 354.701 771.491 354.355 771.177C354.008 770.862 353.784 770.423 353.687 769.855C353.459 770.378 353.138 770.811 352.719 771.153C352.3 771.493 351.851 771.665 351.374 771.665H351.341C350.82 771.665 350.399 771.505 350.08 771.183C349.759 770.862 349.577 770.437 349.533 769.904C349.196 770.481 348.791 770.918 348.321 771.216C347.848 771.516 347.325 771.665 346.748 771.665H346.683L346.617 771.095L346.683 770.523H346.764C347.188 770.523 347.581 770.425 347.946 770.222C348.309 770.022 348.598 769.752 348.817 769.415C349.024 769.124 349.187 768.815 349.305 768.487C349.424 768.163 349.556 767.765 349.696 767.3L350.657 767.398C350.548 767.809 350.464 768.158 350.406 768.447C350.345 768.735 350.315 769.019 350.315 769.303C350.315 770.118 350.662 770.523 351.358 770.523H351.374C352.014 770.523 352.568 770.118 353.035 769.303C353.177 769.054 353.294 768.742 353.387 768.375C353.477 768.005 353.573 767.581 353.671 767.104L354.615 767.169C354.604 767.223 354.564 767.428 354.494 767.788C354.422 768.147 354.387 768.498 354.387 768.847C354.387 769.966 354.848 770.523 355.772 770.523C356.086 770.523 356.388 770.448 356.677 770.297C356.963 770.143 357.177 769.955 357.319 769.727C357.189 769.313 357 768.428 356.749 767.072L357.71 766.827C357.95 768.184 358.138 769.059 358.28 769.45C358.399 769.806 358.578 770.076 358.818 770.255C359.057 770.434 359.376 770.523 359.779 770.523H359.86L359.925 771.095L359.86 771.665H359.779C359.355 771.665 358.969 771.575 358.622 771.395Z" fill="white"/>
<path d="M361.945 762.494L362.287 762.151L363.313 763.178L362.287 764.204L361.261 763.178L361.945 762.494ZM359.681 770.524H360.528C361.44 770.524 362.106 770.393 362.524 770.135C362.941 769.872 363.15 769.472 363.15 768.927C363.139 768.56 363.029 768.041 362.825 767.373C362.62 766.703 362.434 766.191 362.271 765.833L363.199 765.344C363.406 765.779 363.616 766.366 363.835 767.103C364.051 767.843 364.16 768.467 364.16 768.976C364.149 769.868 363.832 770.538 363.209 770.989C362.583 771.441 361.689 771.664 360.528 771.664H359.681L359.681 770.524Z" fill="white"/>
<path d="M582.34 766.826L585.435 762.086H586.82L583.041 767.803L586.934 773.667H585.533L582.34 768.797L579.131 773.667H577.747L581.64 767.803L577.861 762.086H579.229L582.34 766.826Z" fill="white"/>
<path d="M601.952 772.998C601.908 774.497 601.482 775.656 600.672 776.477C599.865 777.296 598.736 777.706 597.294 777.706C596.467 777.706 595.721 777.538 595.053 777.201C594.385 776.864 593.857 776.387 593.473 775.768C593.086 775.149 592.893 774.439 592.893 773.634C592.893 773.092 592.991 772.477 593.186 771.793C593.382 771.109 593.633 770.469 593.938 769.871L594.832 770.295C594.55 770.848 594.329 771.407 594.164 771.972C594.003 772.538 593.922 773.064 593.922 773.552C593.922 774.139 594.059 774.66 594.336 775.116C594.613 775.572 595.006 775.926 595.516 776.175C596.028 776.426 596.619 776.549 597.294 776.549C599.856 776.549 601.072 775.165 600.94 772.396C600.833 769.932 600.737 767.851 600.656 766.157C600.575 764.463 600.502 763.34 600.437 762.786L601.463 762.574C601.517 763.086 601.615 764.854 601.757 767.884L601.871 770.523C601.903 771.044 601.971 771.446 602.073 771.728C602.178 772.012 602.341 772.214 602.562 772.338C602.783 772.463 603.097 772.526 603.499 772.526H603.679L603.744 773.096L603.679 773.666H603.499C602.857 773.666 602.343 773.443 601.952 772.998Z" fill="white"/>
<path d="M615.487 773.398C615.14 773.219 614.847 772.961 614.607 772.624C614.391 772.94 614.112 773.189 613.77 773.373C613.427 773.557 613.06 773.654 612.669 773.666H612.604C612.029 773.654 611.566 773.494 611.219 773.177C610.873 772.863 610.649 772.424 610.552 771.858C610.323 772.382 610.002 772.812 609.583 773.154C609.165 773.496 608.716 773.666 608.239 773.666H608.206C607.685 773.666 607.264 773.506 606.945 773.187C606.624 772.866 606.442 772.44 606.398 771.907C606.06 772.482 605.656 772.919 605.186 773.219C604.713 773.517 604.19 773.666 603.612 773.666H603.547L603.482 773.096L603.547 772.526H603.629C604.052 772.526 604.446 772.426 604.811 772.226C605.174 772.026 605.462 771.756 605.681 771.418C605.888 771.125 606.051 770.816 606.17 770.49C606.289 770.164 606.421 769.769 606.561 769.301L607.522 769.399C607.413 769.813 607.329 770.162 607.271 770.45C607.21 770.737 607.18 771.023 607.18 771.304C607.18 772.119 607.526 772.526 608.222 772.526H608.239C608.878 772.526 609.432 772.119 609.9 771.304C610.042 771.055 610.158 770.746 610.252 770.376C610.342 770.008 610.438 769.582 610.535 769.105L611.48 769.171C611.468 769.226 611.429 769.431 611.359 769.789C611.287 770.15 611.252 770.502 611.252 770.848C611.252 771.968 611.713 772.526 612.636 772.526C612.951 772.526 613.253 772.451 613.542 772.298C613.828 772.147 614.042 771.956 614.184 771.728C614.053 771.316 613.865 770.432 613.614 769.073L614.575 768.829C614.814 770.188 615.003 771.06 615.145 771.453C615.264 771.809 615.443 772.079 615.682 772.258C615.922 772.438 616.241 772.526 616.643 772.526H616.725L616.79 773.096L616.725 773.666H616.643C616.22 773.666 615.833 773.578 615.487 773.398Z" fill="white"/>
<path d="M618.81 764.497L619.152 764.155L620.178 765.181L619.152 766.207L618.126 765.181L618.81 764.497ZM616.546 772.527H617.393C618.305 772.527 618.97 772.397 619.389 772.136C619.806 771.876 620.015 771.473 620.015 770.929C620.003 770.561 619.894 770.042 619.689 769.377C619.484 768.706 619.298 768.194 619.135 767.836L620.064 767.347C620.271 767.78 620.481 768.367 620.699 769.107C620.916 769.844 621.025 770.47 621.025 770.977C621.013 771.869 620.697 772.539 620.073 772.99C619.447 773.442 618.554 773.667 617.393 773.667H616.546L616.546 772.527Z" fill="white"/>
<path d="M632.987 768.23H673.562" stroke="#BDBEBF" stroke-width="9.3077" stroke-miterlimit="10" stroke-linecap="round"/>
<path d="M500.845 768.23H541.42" stroke="white" stroke-width="9.3077" stroke-miterlimit="10" stroke-linecap="round"/>
<path d="M30.0578 428.636H992.326M30.0578 319.419H992.326M30.0578 210.203H992.326" stroke="#D1D3D4" stroke-width="0.5817" stroke-miterlimit="10"/>
<path d="M22.2551 641.183C22.4738 640.959 22.5832 640.675 22.5832 640.333C22.5832 640.001 22.4738 639.724 22.2551 639.5C22.0364 639.277 21.7618 639.165 21.4314 639.165C21.1196 639.165 20.8543 639.277 20.6356 639.5C20.4169 639.724 20.3075 640.001 20.3075 640.333C20.3075 640.675 20.4169 640.959 20.6356 641.183C20.8543 641.406 21.1196 641.518 21.4314 641.518C21.7618 641.518 22.0364 641.406 22.2551 641.183ZM20.1469 642.553C19.7467 642.318 19.4279 642.006 19.1952 641.611C18.9602 641.215 18.8438 640.792 18.8438 640.333C18.8438 639.877 18.9602 639.451 19.1952 639.056C19.4279 638.66 19.7467 638.348 20.1469 638.12C20.5448 637.892 20.973 637.778 21.4314 637.778C21.9084 637.778 22.3436 637.892 22.7391 638.12C23.1347 638.349 23.4488 638.66 23.6838 639.056C23.9165 639.451 24.0328 639.877 24.0328 640.333C24.0328 640.792 23.9164 641.215 23.6838 641.611C23.4488 642.006 23.1346 642.318 22.7391 642.553C22.3435 642.788 21.9084 642.904 21.4314 642.904C20.973 642.904 20.5448 642.788 20.1469 642.553Z" fill="white"/>
<path d="M12.5621 424.782L13.9001 426.122L12.5621 427.46L11.2218 426.122L12.5621 424.782ZM11.9198 416.274H13.4021L9.13221 427.599H7.66861L11.9198 416.274ZM8.66681 416.539L10.0048 417.88L8.66681 419.218L7.32651 417.88L8.66681 416.539Z" fill="white"/>
<path d="M16.9248 426.136C16.9248 424.36 16.8364 422.783 16.6595 421.401C16.4315 419.718 16.0405 418.248 15.4914 416.991L16.9574 416.135C17.2157 416.675 17.4437 417.34 17.6415 418.129C17.8579 418.762 18.1255 419.281 18.435 419.686C18.4047 419.095 18.5258 418.529 18.8027 417.989C19.0773 417.45 19.4659 417.014 19.9708 416.686C20.4734 416.36 21.0389 416.198 21.6601 416.198C22.1371 416.198 22.5932 416.298 23.0237 416.5C23.4565 416.703 23.8823 416.975 24.3105 417.319L23.6846 418.55C23.3937 418.383 23.0796 418.245 22.7352 418.136C22.3932 418.026 22.0557 417.973 21.723 417.973C21.1831 417.973 20.7294 418.122 20.3617 418.417C19.9894 418.713 19.8056 419.074 19.8056 419.499C19.8056 419.925 19.9708 420.281 20.2966 420.565C20.6247 420.851 21.0831 420.996 21.6765 420.996C22.4025 420.996 23.2402 420.768 24.1849 420.309L24.5898 421.852C24.1733 422.101 23.6916 422.303 23.1401 422.459C22.5909 422.615 22.0278 422.694 21.4577 422.694C20.2012 422.694 19.1214 422.313 18.2186 421.557C18.3419 422.895 18.4047 424.395 18.4047 426.057L18.3884 427.118H16.9085C16.9201 426.911 16.9248 426.583 16.9248 426.136Z" fill="white"/>
<path d="M29.1678 424.804C29.3865 424.581 29.4959 424.297 29.4959 423.955C29.4959 423.622 29.3865 423.345 29.1678 423.122C28.9491 422.898 28.6745 422.787 28.3441 422.787C28.0323 422.787 27.767 422.898 27.5483 423.122C27.3296 423.345 27.2202 423.622 27.2202 423.955C27.2202 424.297 27.3296 424.581 27.5483 424.804C27.767 425.027 28.0323 425.139 28.3441 425.139C28.6745 425.139 28.9491 425.027 29.1678 424.804ZM27.0596 426.174C26.6594 425.942 26.3406 425.628 26.1079 425.232C25.8729 424.839 25.7565 424.413 25.7565 423.955C25.7565 423.499 25.8729 423.073 26.1079 422.677C26.3406 422.284 26.6594 421.972 27.0596 421.742C27.4575 421.516 27.8857 421.4 28.3441 421.4C28.8211 421.4 29.2563 421.516 29.6518 421.742C30.0474 421.972 30.3615 422.284 30.5965 422.677C30.8292 423.073 30.9455 423.499 30.9455 423.955C30.9455 424.413 30.8291 424.839 30.5965 425.232C30.3615 425.628 30.0473 425.942 29.6518 426.174C29.2562 426.41 28.8211 426.526 28.3441 426.526C27.8857 426.526 27.4575 426.41 27.0596 426.174Z" fill="white"/>
<path d="M30.0578 537.853H992.326" stroke="#D1D3D4" stroke-width="0.5817" stroke-miterlimit="10"/>
<path d="M12.5621 532.972L13.9001 534.31L12.5621 535.651L11.2218 534.31L12.5621 532.972ZM11.9198 524.465H13.4021L9.13221 535.79H7.66861L11.9198 524.465ZM8.66681 524.731L10.0048 526.071L8.66681 527.409L7.32651 526.071L8.66681 524.731Z" fill="white"/>
<path d="M16.8476 534.327C16.8476 532.551 16.7592 530.971 16.5823 529.592C16.3543 527.909 15.9633 526.439 15.4142 525.182L16.8778 524.326C17.0756 524.74 17.2408 525.182 17.3781 525.65C17.6364 526.315 17.904 526.806 18.1786 527.12C18.4532 527.439 18.8557 527.595 19.3863 527.595C19.9797 527.595 20.4032 527.418 20.6638 527.06C20.9221 526.701 21.0547 526.18 21.0547 525.494C21.0547 525.326 21.0314 525.026 20.9895 524.589L22.3159 524.326C22.3997 524.793 22.4392 525.219 22.4392 525.601C22.4392 526.694 22.1856 527.59 21.676 528.298C21.1664 529.003 20.4358 529.363 19.4794 529.373C18.9489 529.373 18.4765 529.254 18.06 529.014L18.1089 529.373C18.2532 530.681 18.3276 532.291 18.3276 534.201L18.3113 535.309H16.8314C16.8407 535.102 16.8476 534.774 16.8476 534.327Z" fill="white"/>
<path d="M27.1726 532.995C27.3913 532.771 27.5007 532.488 27.5007 532.146C27.5007 531.813 27.3913 531.536 27.1726 531.312C26.9539 531.089 26.6793 530.977 26.3489 530.977C26.0371 530.977 25.7718 531.089 25.5531 531.312C25.3344 531.536 25.225 531.813 25.225 532.146C25.225 532.488 25.3344 532.771 25.5531 532.995C25.7718 533.218 26.0371 533.33 26.3489 533.33C26.6793 533.33 26.9539 533.218 27.1726 532.995ZM25.0644 534.365C24.6642 534.13 24.3454 533.819 24.1127 533.423C23.8777 533.027 23.7613 532.602 23.7613 532.146C23.7613 531.69 23.8777 531.264 24.1127 530.868C24.3454 530.475 24.6642 530.163 25.0644 529.933C25.4623 529.707 25.8905 529.591 26.3489 529.591C26.8259 529.591 27.2611 529.707 27.6566 529.933C28.0522 530.163 28.3663 530.475 28.6013 530.868C28.834 531.264 28.9503 531.689 28.9503 532.146C28.9503 532.602 28.8339 533.027 28.6013 533.423C28.3663 533.819 28.0521 534.13 27.6566 534.365C27.261 534.6 26.8259 534.717 26.3489 534.717C25.8905 534.717 25.4623 534.6 25.0644 534.365Z" fill="white"/>
<path d="M12.5621 316.591L13.9001 317.928L12.5621 319.269L11.2218 317.928L12.5621 316.591ZM11.9198 308.083H13.4021L9.13221 319.408H7.66861L11.9198 308.083ZM8.66681 308.348L10.0048 309.689L8.66681 311.027L7.32651 309.689L8.66681 308.348Z" fill="white"/>
<path d="M17.9066 314.082C17.2923 313.893 16.8036 313.544 16.4406 313.03C16.0776 312.516 15.8961 311.948 15.8961 311.324C15.8961 310.836 16.0148 310.349 16.2475 309.868C16.4825 309.384 16.8246 308.969 17.283 308.62C17.7414 308.274 18.2859 308.057 18.9188 307.973C18.9909 307.964 19.1073 307.959 19.2608 307.959C19.6983 307.959 20.1194 308.039 20.5313 308.201C20.9432 308.362 21.2713 308.541 21.5202 308.739L20.9129 309.968C20.4964 309.74 20.024 309.626 19.4958 309.626C19.3166 309.626 19.184 309.63 19.0909 309.642C18.5604 309.705 18.1345 309.898 17.8134 310.226C17.49 310.552 17.3294 310.919 17.3294 311.324C17.341 311.636 17.49 311.901 17.7808 312.118C18.0717 312.336 18.4509 312.446 18.9187 312.446C19.4376 312.446 19.9914 312.306 20.5848 312.025C21.0432 311.764 21.5551 311.52 22.1276 311.294L22.4231 313.037C21.2201 313.505 20.0613 314.275 18.949 315.343C17.839 316.413 16.9967 317.707 16.4266 319.222L15.1026 318.598C15.6843 316.895 16.6174 315.389 17.9066 314.082Z" fill="white"/>
<path d="M27.266 316.614C27.4847 316.388 27.5941 316.107 27.5941 315.765C27.5941 315.432 27.4847 315.155 27.266 314.932C27.0473 314.708 26.7727 314.594 26.4423 314.594C26.1305 314.594 25.8652 314.708 25.6465 314.932C25.4278 315.155 25.3184 315.432 25.3184 315.765C25.3184 316.107 25.4278 316.388 25.6465 316.614C25.8652 316.835 26.1305 316.949 26.4423 316.949C26.7727 316.949 27.0473 316.835 27.266 316.614ZM25.1578 317.985C24.7576 317.75 24.4388 317.435 24.2061 317.042C23.9711 316.647 23.8547 316.221 23.8547 315.765C23.8547 315.309 23.9711 314.883 24.2061 314.487C24.4388 314.092 24.7576 313.78 25.1578 313.552C25.5557 313.324 25.9839 313.21 26.4423 313.21C26.9193 313.21 27.3545 313.324 27.75 313.552C28.1456 313.78 28.4597 314.092 28.6947 314.487C28.9274 314.883 29.0437 315.309 29.0437 315.765C29.0437 316.221 28.9273 316.647 28.6947 317.042C28.4597 317.435 28.1455 317.75 27.75 317.985C27.3544 318.217 26.9193 318.334 26.4423 318.334C25.9839 318.334 25.5557 318.217 25.1578 317.985Z" fill="white"/>
<path d="M12.5621 207.867L13.9001 209.204L12.5621 210.545L11.2218 209.204L12.5621 207.867ZM11.9198 199.359H13.4021L9.13221 210.684H7.66861L11.9198 199.359ZM8.66681 199.625L10.0048 200.965L8.66681 202.303L7.32651 200.965L8.66681 199.625Z" fill="white"/>
<path d="M16.3475 206.744C16.878 205.581 17.3644 204.34 17.8042 203.021C18.244 201.702 18.5395 200.508 18.6861 199.438H20.1009C20.2172 200.496 20.4918 201.688 20.9293 203.005C21.3644 204.324 21.8554 205.567 22.4023 206.728C22.9468 207.891 23.4215 208.789 23.8264 209.422L22.4558 210.421C21.9764 209.662 21.4482 208.571 20.8735 207.14C20.2964 205.713 19.8008 204.247 19.3866 202.74C18.9608 204.268 18.4605 205.741 17.8904 207.165C17.3203 208.587 16.7991 209.671 16.3314 210.421L14.9608 209.422C15.3564 208.801 15.8169 207.908 16.3475 206.744Z" fill="white"/>
<path d="M28.5134 207.889C28.7321 207.666 28.8415 207.382 28.8415 207.04C28.8415 206.707 28.7321 206.43 28.5134 206.207C28.2947 205.983 28.0201 205.872 27.6897 205.872C27.3779 205.872 27.1126 205.983 26.8939 206.207C26.6752 206.43 26.5658 206.707 26.5658 207.04C26.5658 207.382 26.6752 207.666 26.8939 207.889C27.1126 208.112 27.3779 208.224 27.6897 208.224C28.0201 208.224 28.2947 208.112 28.5134 207.889ZM26.4052 209.26C26.005 209.027 25.6862 208.713 25.4535 208.317C25.2185 207.924 25.1021 207.498 25.1021 207.04C25.1021 206.584 25.2185 206.158 25.4535 205.762C25.6862 205.369 26.005 205.055 26.4052 204.829C26.8031 204.599 27.2313 204.485 27.6897 204.485C28.1667 204.485 28.6019 204.599 28.9974 204.829C29.393 205.055 29.7071 205.369 29.9421 205.762C30.1748 206.158 30.2911 206.584 30.2911 207.04C30.2911 207.498 30.1747 207.924 29.9421 208.317C29.7071 208.713 29.3929 209.027 28.9974 209.26C28.6018 209.495 28.1667 209.611 27.6897 209.611C27.2313 209.611 26.8031 209.495 26.4052 209.26Z" fill="white"/>
<path d="M126.213 688.76C125.985 688.663 125.717 688.614 125.415 688.614C124.893 688.614 124.416 688.747 123.981 689.012C123.548 689.277 123.33 689.621 123.33 690.047C123.33 690.634 124.091 691.327 125.61 692.132C125.992 691.546 126.28 691.025 126.476 690.568C126.671 690.112 126.769 689.754 126.769 689.494C126.769 689.375 126.746 689.277 126.701 689.2C126.604 689.005 126.441 688.858 126.213 688.76ZM133.412 694.901C132.153 695.02 131.067 695.113 130.157 695.178C129.242 695.241 128.358 695.276 127.5 695.276C127.064 695.276 126.757 695.271 126.573 695.26C126.092 695.239 125.706 695.078 125.408 694.778C125.11 694.48 124.959 694.124 124.959 693.712C124.959 693.526 124.991 693.349 125.056 693.175C124.153 692.74 123.427 692.279 122.874 691.79C122.32 691.301 122.027 690.769 121.994 690.194C121.961 689.64 122.106 689.154 122.424 688.735C122.746 688.318 123.174 687.997 123.704 687.774C124.237 687.553 124.791 687.439 125.366 687.439C125.931 687.439 126.45 687.555 126.922 687.783C127.395 688.011 127.748 688.349 127.988 688.793C128.097 689.009 128.151 689.237 128.151 689.475C128.151 689.877 128.021 690.389 127.76 691.008C127.499 691.627 127.081 692.43 126.506 693.419C126.464 693.505 126.441 693.575 126.441 693.631C126.441 693.826 126.566 693.928 126.815 693.94L127.434 693.956C128.477 693.956 130.171 693.859 132.516 693.663L133.722 693.566L133.95 694.852L133.412 694.901Z" fill="white"/>
<path d="M124.666 685.355C123.188 685.355 121.659 685.385 120.079 685.445C118.502 685.504 117.476 685.574 117.01 685.648L116.733 684.345C117.234 684.28 118.32 684.212 119.998 684.142C121.678 684.073 123.27 684.035 124.78 684.035C126.299 684.035 127.419 684.075 128.135 684.149L127.972 685.469C127.321 685.394 126.218 685.355 124.666 685.355Z" fill="white"/>
<path d="M127.777 679.084H128.019C128.661 679.084 129.287 679.275 129.901 679.654C130.516 680.036 131.069 680.559 131.565 681.225C132.058 681.895 132.452 682.647 132.745 683.482L131.474 684.036C131.235 683.342 130.92 682.712 130.53 682.146C130.139 681.581 129.72 681.139 129.275 680.82C128.829 680.499 128.412 680.338 128.019 680.338C127.467 680.338 126.108 680.615 123.947 681.169L123.477 679.915C124.042 679.74 124.591 679.601 125.122 679.491C125.666 679.328 126.048 679.133 126.271 678.905C126.492 678.677 126.604 678.372 126.604 677.993V677.879L127.337 677.797L128.07 677.879V677.993C128.07 678.405 127.972 678.77 127.777 679.084Z" fill="white"/>
<path d="M127.54 671.21C127.188 671.671 126.621 672.174 125.839 672.716L125.92 672.748C127.354 673.27 128.07 674.898 128.07 677.635V678.042H126.604V677.635C126.604 676.56 126.518 675.715 126.344 675.101C126.169 674.489 125.892 674.077 125.513 673.872C125.392 673.796 125.241 673.758 125.057 673.758C124.536 673.758 123.884 674.07 123.102 674.696C122.321 675.32 121.515 676.162 120.692 677.228L119.289 677.065L116.734 671.103L117.92 670.68L120.138 675.778C120.538 675.289 120.99 674.822 121.49 674.377C121.99 673.931 122.493 673.556 123.005 673.253C123.959 672.667 124.68 672.192 125.164 671.827C125.646 671.464 126.006 671.11 126.246 670.761C126.483 670.415 126.604 670.028 126.604 669.605V669.393L127.335 669.312L128.07 669.393V669.605C128.07 670.212 127.893 670.747 127.54 671.21ZM117.385 676.886L115.186 671.722L115.803 671.478L118.151 676.967L117.385 676.886Z" fill="white"/>
<path d="M127.752 665.922C127.54 666.281 127.244 666.585 126.865 666.834C127.668 667.302 128.071 668.056 128.071 669.099V669.571H126.605V669.115C126.605 668.519 126.477 668.082 126.221 667.805C125.965 667.528 125.558 667.376 124.99 667.356H124.829C124.58 667.346 123.352 667.386 121.148 667.479C118.944 667.57 117.564 667.644 117.011 667.698L116.734 666.397C117.418 666.309 119.659 666.222 123.459 666.134C124.145 666.104 124.606 666.085 124.845 666.085C126.018 666.02 126.604 665.582 126.604 664.766V664.586L127.335 664.507L128.07 664.586V664.766C128.07 665.18 127.964 665.564 127.752 665.922Z" fill="white"/>
<path d="M126.604 664.75V664.099C126.604 662.937 126.492 662.118 126.269 661.639C126.048 661.162 125.683 660.922 125.171 660.922C124.833 660.934 124.321 661.046 123.633 661.257C122.942 661.469 122.446 661.651 122.141 661.802L121.52 660.629C121.946 660.413 122.518 660.199 123.242 659.987C123.963 659.775 124.591 659.668 125.122 659.668C126.088 659.668 126.823 660.022 127.321 660.727C127.819 661.434 128.07 662.498 128.07 663.919V664.75H126.604ZM118.558 661.737L118.395 659.815H119.844C119.931 660.65 119.991 661.301 120.024 661.769L120.187 663.691H118.737C118.651 662.856 118.59 662.204 118.558 661.737Z" fill="white"/>
<path d="M241.708 676.724C241.452 677.159 241.07 677.466 240.559 677.646C240.049 677.825 239.374 677.913 238.539 677.913C237.301 677.913 235.898 677.936 234.327 677.985C232.759 678.034 231.66 678.109 231.03 678.206L230.753 676.903C231.307 676.817 232.275 676.75 233.662 676.701C235.046 676.652 236.303 676.626 237.431 676.626H238.115L238.685 676.643C239.197 676.643 239.584 676.598 239.849 676.512C240.117 676.426 240.312 676.261 240.435 676.017C240.561 675.772 240.624 675.405 240.624 674.916V674.834L241.357 674.753L242.09 674.834V674.916C242.09 675.689 241.962 676.289 241.708 676.724Z" fill="white"/>
<path d="M240.624 674.998V674.852C240.624 674.016 240.587 673.365 240.517 672.897C240.447 672.429 240.336 672.09 240.182 671.871C240.031 671.654 239.826 671.496 239.565 671.398C239.37 671.333 239.135 671.301 238.865 671.301C238.518 671.301 237.92 671.366 237.073 671.496L236.845 670.291C237.529 670.16 238.397 670.091 239.451 670.079C240.233 669.925 240.624 669.432 240.624 668.597V668.483L241.355 668.401L242.09 668.483V668.597C242.09 669.053 241.974 669.465 241.739 669.835C241.506 670.205 241.194 670.491 240.803 670.698C241.28 670.958 241.615 671.403 241.806 672.034C241.995 672.664 242.09 673.602 242.09 674.852V674.998L240.624 674.998ZM233.539 671.903L233.376 669.981H234.825C234.912 670.817 234.972 671.468 235.005 671.936L235.168 673.858H233.718C233.629 673.02 233.571 672.371 233.539 671.903Z" fill="white"/>
<path d="M245.641 667.017L245.804 668.939H244.354C244.266 668.104 244.207 667.452 244.175 666.985L244.012 665.062H245.462C245.548 665.898 245.608 666.549 245.641 667.017ZM240.624 668.646V667.994C240.624 666.833 240.512 666.012 240.289 665.535C240.068 665.058 239.702 664.818 239.19 664.818C238.853 664.827 238.341 664.939 237.652 665.153C236.961 665.363 236.466 665.544 236.161 665.698L235.539 664.525C235.965 664.306 236.538 664.092 237.261 663.88C237.983 663.669 238.611 663.564 239.142 663.564C240.107 663.564 240.843 663.915 241.341 664.623C241.838 665.328 242.09 666.391 242.09 667.815V668.646L240.624 668.646Z" fill="white"/>
<path d="M238.686 661.462C237.208 661.462 235.679 661.492 234.099 661.552C232.522 661.611 231.495 661.681 231.03 661.755L230.753 660.452C231.253 660.387 232.34 660.319 234.018 660.249C235.698 660.18 237.289 660.145 238.8 660.145C240.319 660.145 241.438 660.182 242.155 660.256L241.992 661.576C241.341 661.501 240.238 661.462 238.686 661.462Z" fill="white"/>
<path d="M361.209 700.829H359.678L359.545 699.363H361.076L361.209 700.829ZM358.912 700.129L359.091 702.249L357.625 702.232L357.446 700.164H357.46L357.281 698.177L358.731 698.19L358.912 700.129ZM355.473 704.536C354.94 705.586 354.175 706.158 353.179 706.256C353.093 706.265 352.967 706.272 352.804 706.272C352.346 706.272 351.871 706.214 351.378 706.1C350.882 705.986 350.447 705.841 350.068 705.667L350.619 704.559C351.466 704.864 352.134 705.018 352.623 705.018C352.776 705.018 352.89 705.011 352.967 705.001C353.553 704.913 354.002 704.468 354.319 703.663C354.633 702.861 354.796 701.699 354.807 700.178C354.807 699.191 354.731 698.337 354.577 697.62C354.426 696.906 354.247 696.357 354.042 695.978C353.835 695.596 353.639 695.384 353.456 695.34C353.02 695.384 352.464 695.512 351.785 695.724C351.105 695.936 350.577 696.117 350.195 696.268L349.56 695.096C350.084 694.879 350.728 694.665 351.499 694.453C352.271 694.242 352.89 694.137 353.358 694.137C353.944 694.137 354.456 694.395 354.896 694.909C355.336 695.426 355.675 696.143 355.913 697.06C356.152 697.976 356.273 699.017 356.273 700.178C356.273 702.037 356.006 703.489 355.473 704.536Z" fill="white"/>
<path d="M355.728 690.862C355.472 691.297 355.09 691.602 354.578 691.783C354.069 691.963 353.394 692.051 352.558 692.051C351.32 692.051 349.917 692.074 348.347 692.123C346.778 692.172 345.68 692.246 345.049 692.344L344.773 691.041C345.326 690.955 346.294 690.887 347.681 690.839C349.066 690.79 350.322 690.764 351.451 690.764H352.135L352.705 690.78C353.217 690.78 353.603 690.736 353.869 690.65C354.136 690.564 354.332 690.396 354.455 690.152C354.581 689.908 354.643 689.542 354.643 689.054V688.972L355.376 688.891L356.109 688.972V689.054C356.109 689.824 355.981 690.427 355.728 690.862Z" fill="white"/>
<path d="M355.857 677.114C355.689 677.472 355.436 677.777 355.101 678.026C355.403 678.266 355.645 678.557 355.824 678.899C356.001 679.241 356.099 679.601 356.108 679.981V680.046C356.099 680.6 355.945 681.053 355.652 681.407C355.359 681.758 354.94 682 354.398 682.131C354.898 682.382 355.305 682.703 355.62 683.101C355.936 683.497 356.099 683.929 356.108 684.395V684.444C356.108 684.944 355.959 685.358 355.661 685.691C355.364 686.021 354.959 686.219 354.449 686.284C354.991 686.622 355.403 687.022 355.687 687.49C355.969 687.957 356.108 688.474 356.108 689.037V689.102L355.375 689.184L354.645 689.102V689.021C354.645 688.618 354.549 688.239 354.366 687.881C354.182 687.522 353.937 687.245 353.633 687.05C353.339 686.845 353.03 686.685 352.706 686.571C352.381 686.457 351.994 686.34 351.547 686.219L351.678 684.997C351.743 685.018 351.908 685.063 352.166 685.128C352.427 685.193 352.674 685.246 352.899 685.284C353.128 685.321 353.335 685.34 353.518 685.34C354.268 685.34 354.645 685.035 354.645 684.427V684.395C354.645 683.787 354.263 683.266 353.502 682.831C353.242 682.689 352.932 682.58 352.576 682.498C352.218 682.417 351.82 682.338 351.385 682.261L351.45 681.056C351.494 681.067 351.694 681.105 352.052 681.17C352.413 681.235 352.76 681.267 353.095 681.267C353.616 681.267 354.005 681.167 354.259 680.967C354.517 680.765 354.645 680.448 354.645 680.013C354.645 679.72 354.58 679.443 354.454 679.182C354.333 678.922 354.17 678.715 353.975 678.563C353.64 678.673 352.776 678.857 351.385 679.117L351.075 677.928C352.422 677.691 353.281 677.505 353.651 677.374C353.986 677.265 354.238 677.095 354.398 676.862C354.561 676.63 354.645 676.322 354.645 675.941V675.859L355.375 675.778L356.108 675.859V675.941C356.108 676.364 356.024 676.755 355.857 677.114Z" fill="white"/>
<path d="M354.644 676.039V675.388C354.644 674.227 354.532 673.408 354.309 672.928C354.087 672.449 353.722 672.211 353.21 672.211C352.873 672.223 352.361 672.335 351.672 672.544C350.981 672.758 350.485 672.94 350.181 673.091L349.559 671.918C349.985 671.702 350.558 671.486 351.281 671.276C352.003 671.062 352.631 670.957 353.161 670.957C354.127 670.957 354.862 671.311 355.36 672.016C355.858 672.721 356.11 673.787 356.11 675.209V676.039H354.644ZM346.597 673.026L346.434 671.104H347.884C347.97 671.942 348.03 672.591 348.063 673.058L348.226 674.981H346.776C346.69 674.143 346.63 673.494 346.597 673.026Z" fill="white"/>
<path d="M352.705 668.856C351.228 668.856 349.699 668.886 348.119 668.947C346.541 669.005 345.515 669.072 345.05 669.149L344.773 667.846C345.273 667.781 346.36 667.713 348.037 667.644C349.717 667.572 351.309 667.537 352.819 667.537C354.339 667.537 355.458 667.574 356.175 667.651L356.012 668.97C355.36 668.896 354.257 668.856 352.705 668.856Z" fill="white"/>
<path d="M354.53 663.343C354.66 662.926 354.725 662.444 354.725 661.9C354.725 661.586 354.697 661.239 354.644 660.857C353.764 660.967 352.999 661.197 352.347 661.551C351.693 661.904 351.354 662.351 351.321 662.893C351.309 663.133 351.407 663.366 351.614 663.596C351.819 663.822 352.087 664.008 352.412 664.148C352.738 664.29 353.045 664.359 353.339 664.359C353.581 664.359 353.781 664.311 353.944 664.213C354.202 664.05 354.397 663.759 354.53 663.343ZM358.121 662.3C357.562 661.469 356.869 660.983 356.043 660.841C356.122 661.19 356.159 661.607 356.159 662.095C356.159 662.803 356.047 663.443 355.826 664.017C355.603 664.594 355.247 665.006 354.758 665.258C354.409 665.43 354.002 665.516 353.534 665.516C352.971 665.516 352.408 665.395 351.842 665.151C351.279 664.906 350.809 664.581 350.441 664.173C350.071 663.766 349.888 663.329 349.888 662.861C349.888 662.221 350.169 661.656 350.735 661.169C351.298 660.678 352.007 660.306 352.859 660.043C353.711 659.782 354.551 659.652 355.375 659.652C356.722 659.652 357.869 660.166 358.814 661.193C359.759 662.219 360.415 663.65 360.785 665.486L359.482 665.907C359.135 664.334 358.679 663.131 358.121 662.3Z" fill="white"/>
<path d="M469.747 693.404C469.491 693.839 469.11 694.146 468.598 694.325C468.088 694.504 467.413 694.593 466.578 694.593C465.34 694.593 463.937 694.618 462.366 694.667C460.798 694.716 459.7 694.788 459.069 694.886L458.792 693.583C459.346 693.497 460.314 693.429 461.701 693.38C463.085 693.331 464.342 693.306 465.471 693.306H466.155L466.725 693.322C467.237 693.322 467.623 693.28 467.888 693.192C468.156 693.106 468.351 692.94 468.475 692.696C468.6 692.452 468.663 692.084 468.663 691.595V691.514L469.396 691.432L470.129 691.514V691.595C470.129 692.368 470.001 692.971 469.747 693.404Z" fill="white"/>
<path d="M469.6 684.796C469.248 685.289 468.678 685.808 467.899 686.35L467.98 686.383C468.706 686.643 469.248 687.204 469.6 688.06C469.951 688.919 470.13 690.031 470.13 691.399V691.809H468.664V691.399C468.664 688.805 468.124 687.509 467.049 687.509C466.498 687.509 465.818 687.814 465.013 688.428C464.213 689.042 463.363 689.896 462.472 690.995L461.09 690.813L458.514 684.868L459.722 684.444L461.935 689.545C462.36 689.021 462.852 688.521 463.41 688.037C463.968 687.553 464.536 687.16 465.111 686.855C466.058 686.28 466.772 685.803 467.261 685.424C467.75 685.042 468.106 684.677 468.329 684.323C468.553 683.972 468.664 683.576 468.664 683.143V682.948L469.395 682.864L470.13 682.948V683.143C470.13 683.751 469.951 684.302 469.6 684.796Z" fill="white"/>
<path d="M473.648 681.367L473.81 683.289H472.361C472.275 682.453 472.214 681.802 472.182 681.334L472.016 679.412H473.466C473.557 680.25 473.615 680.901 473.648 681.367ZM468.663 683.11V682.963C468.663 682.128 468.626 681.476 468.556 681.008C468.486 680.541 468.375 680.201 468.223 679.982C468.07 679.766 467.865 679.608 467.605 679.51C467.409 679.445 467.174 679.412 466.904 679.412C466.557 679.412 465.959 679.477 465.112 679.608L464.884 678.402C465.568 678.272 466.436 678.202 467.491 678.19C468.272 678.039 468.663 677.543 468.663 676.708V676.594L469.394 676.513L470.129 676.594V676.708C470.129 677.164 470.013 677.579 469.778 677.946C469.545 678.316 469.233 678.602 468.842 678.809C469.319 679.07 469.655 679.517 469.845 680.145C470.034 680.776 470.129 681.713 470.129 682.963V683.11L468.663 683.11Z" fill="white"/>
<path d="M471.937 674.721H473.55L473.696 676.35H472.084L471.937 674.721ZM468.663 676.757V675.91C468.663 675.042 468.549 674.414 468.321 674.03C468.093 673.644 467.742 673.451 467.26 673.451C466.925 673.451 466.408 673.56 465.713 673.776C465.022 673.995 464.517 674.174 464.2 674.314L463.579 673.141C464.037 672.934 464.638 672.722 465.382 672.506C466.125 672.289 466.757 672.18 467.279 672.18C468.214 672.192 468.919 672.517 469.403 673.157C469.887 673.799 470.129 674.716 470.129 675.91V676.757L468.663 676.757Z" fill="white"/>
<path d="M468.55 668.458C468.68 668.041 468.745 667.559 468.745 667.017C468.745 666.701 468.717 666.354 468.664 665.972C467.784 666.082 467.019 666.312 466.367 666.666C465.713 667.02 465.373 667.466 465.341 668.008C465.329 668.248 465.427 668.481 465.634 668.711C465.839 668.939 466.106 669.123 466.432 669.265C466.758 669.405 467.065 669.477 467.358 669.477C467.6 669.477 467.8 669.428 467.963 669.33C468.221 669.167 468.417 668.877 468.55 668.458ZM472.14 667.415C471.582 666.585 470.888 666.098 470.062 665.959C470.141 666.305 470.178 666.724 470.178 667.213C470.178 667.918 470.067 668.56 469.846 669.135C469.622 669.71 469.266 670.122 468.778 670.373C468.429 670.547 468.021 670.633 467.554 670.633C466.991 670.633 466.427 670.51 465.862 670.266C465.299 670.021 464.829 669.696 464.461 669.288C464.091 668.881 463.907 668.444 463.907 667.978C463.907 667.336 464.189 666.773 464.754 666.284C465.317 665.796 466.027 665.421 466.879 665.16C467.731 664.898 468.571 664.769 469.394 664.769C470.742 664.769 471.889 665.281 472.833 666.308C473.778 667.334 474.435 668.765 474.804 670.601L473.501 671.024C473.155 669.449 472.699 668.246 472.14 667.415Z" fill="white"/>
<path d="M472.588 662.716C472.197 662.153 471.778 661.708 471.334 661.39C470.889 661.068 470.473 660.908 470.079 660.908C469.528 660.908 468.169 661.185 466.007 661.741L465.537 660.484C466.308 660.247 467.12 660.049 467.981 659.891C468.837 659.733 469.537 659.656 470.079 659.656C470.719 659.656 471.348 659.844 471.96 660.224C472.574 660.605 473.128 661.129 473.623 661.794C474.117 662.465 474.51 663.216 474.803 664.052L473.532 664.605C473.295 663.912 472.979 663.281 472.588 662.716Z" fill="white"/>
<path d="M581.557 674.531C581.764 674.222 581.867 673.803 581.867 673.27C581.867 672.802 581.792 672.325 581.639 671.837C581.467 671.879 581.201 671.923 580.843 671.967L578.872 672.195C579.1 672.953 579.393 673.596 579.752 674.117C580.108 674.638 580.452 674.915 580.776 674.948C581.092 674.98 581.353 674.841 581.557 674.531ZM583.042 671.332C583.237 671.962 583.335 672.563 583.335 673.14C583.335 674.031 583.128 674.762 582.714 675.329C582.304 675.899 581.743 676.186 581.038 676.186C579.538 676.186 578.356 674.903 577.485 672.341C577.271 672.374 576.943 672.411 576.508 672.456L576.25 671.136C578.421 670.941 579.887 670.794 580.648 670.696C581.201 670.643 581.62 670.564 581.902 670.459C582.183 670.357 582.386 670.203 582.504 669.996C582.623 669.789 582.684 669.491 582.684 669.1V668.872L583.414 668.791L584.149 668.872V669.1C584.149 670.131 583.78 670.876 583.042 671.332Z" fill="white"/>
<path d="M583.831 665.418C583.619 665.776 583.323 666.081 582.944 666.33C583.747 666.798 584.149 667.552 584.149 668.594V669.067H582.683V668.61C582.683 668.015 582.555 667.577 582.299 667.3C582.043 667.023 581.636 666.872 581.068 666.851H580.908C580.659 666.842 579.43 666.881 577.227 666.974C575.023 667.065 573.643 667.14 573.089 667.193L572.812 665.893C573.497 665.804 575.737 665.718 579.537 665.63C580.224 665.599 580.684 665.581 580.924 665.581C582.097 665.515 582.683 665.078 582.683 664.261V664.082L583.414 664.003L584.149 664.082V664.261C584.149 664.675 584.042 665.059 583.831 665.418Z" fill="white"/>
<path d="M585.957 662.209H587.569L587.716 663.838H586.103L585.957 662.209ZM582.683 664.245V663.398C582.683 662.53 582.569 661.902 582.341 661.518C582.113 661.132 581.761 660.939 581.28 660.939C580.945 660.939 580.428 661.048 579.732 661.264C579.041 661.483 578.536 661.662 578.22 661.802L577.599 660.629C578.057 660.424 578.657 660.213 579.402 659.994C580.144 659.777 580.777 659.668 581.298 659.668C582.234 659.68 582.939 660.005 583.423 660.645C583.907 661.288 584.149 662.204 584.149 663.398V664.245L582.683 664.245Z" fill="white"/>
<path d="M697.866 681.69C697.633 682.298 697.363 682.782 697.061 683.14L695.984 682.505C696.007 682.463 696.098 682.302 696.256 682.026C696.412 681.746 696.547 681.395 696.654 680.967C696.761 680.536 696.817 680.085 696.817 679.606C696.817 679.019 696.733 678.54 696.563 678.165C696.395 677.791 696.207 677.548 696.002 677.439C695.872 677.386 695.737 677.358 695.593 677.358C695.085 677.358 694.452 677.637 693.696 678.198C692.942 678.756 692.146 679.605 691.311 680.746L690.041 680.013C690.953 678.807 691.895 677.865 692.868 677.188C693.84 676.508 694.748 676.169 695.593 676.169C695.983 676.169 696.34 676.238 696.654 676.38C697.152 676.599 697.538 676.987 697.81 677.553C698.082 678.118 698.217 678.765 698.217 679.491C698.217 680.35 698.101 681.083 697.866 681.69Z" fill="white"/>
<path d="M697.787 672.879C697.531 673.314 697.149 673.619 696.637 673.798C696.128 673.978 695.453 674.068 694.618 674.068C693.38 674.068 691.977 674.092 690.406 674.14C688.838 674.189 687.739 674.264 687.109 674.362L686.832 673.058C687.386 672.972 688.354 672.902 689.74 672.854C691.125 672.805 692.381 672.781 693.51 672.781H694.194L694.764 672.798C695.276 672.798 695.662 672.754 695.928 672.667C696.195 672.581 696.391 672.414 696.514 672.169C696.64 671.925 696.703 671.56 696.703 671.071V670.99L697.436 670.908L698.168 670.99V671.071C698.168 671.841 698.04 672.444 697.787 672.879Z" fill="white"/>
<path d="M697.712 663.422C697.419 663.775 697 664.017 696.458 664.148C696.956 664.397 697.363 664.72 697.68 665.118C697.996 665.514 698.157 665.944 698.169 666.412V666.461C698.169 666.961 698.017 667.377 697.722 667.708C697.424 668.038 697.019 668.236 696.507 668.301C697.049 668.639 697.461 669.039 697.745 669.507C698.027 669.974 698.169 670.489 698.169 671.054V671.119L697.433 671.201L696.703 671.119V671.038C696.703 670.635 696.61 670.256 696.426 669.898C696.242 669.539 695.995 669.262 695.69 669.067C695.4 668.86 695.09 668.699 694.764 668.588C694.439 668.471 694.052 668.357 693.608 668.236L693.738 667.015C693.803 667.038 693.966 667.08 694.227 667.145C694.487 667.21 694.732 667.261 694.96 667.299C695.188 667.338 695.395 667.357 695.579 667.357C696.328 667.357 696.703 667.052 696.703 666.445V666.412C696.703 665.805 696.323 665.283 695.562 664.848C695.302 664.709 694.992 664.594 694.634 664.515C694.276 664.432 693.878 664.355 693.445 664.278L693.51 663.073C693.554 663.084 693.752 663.122 694.113 663.187C694.471 663.252 694.818 663.284 695.155 663.284C695.676 663.284 696.065 663.184 696.319 662.982C696.575 662.782 696.703 662.465 696.703 662.03C696.703 661.216 696.254 660.808 695.351 660.808C694.983 660.808 694.462 660.916 693.794 661.127C693.129 661.337 692.619 661.525 692.272 661.688L691.637 660.532C692.093 660.315 692.686 660.097 693.422 659.88C694.152 659.664 694.797 659.554 695.351 659.554C695.872 659.554 696.347 659.659 696.775 659.864C697.206 660.069 697.543 660.359 697.794 660.736C698.043 661.111 698.169 661.53 698.169 661.998V662.063C698.157 662.617 698.006 663.07 697.712 663.422ZM689.405 663.724L689.226 661.607L690.692 661.623L690.871 663.692H690.855L691.034 665.679L689.582 665.663L689.405 663.724ZM687.109 663.024H688.64L688.77 664.49H687.239L687.109 663.024Z" fill="white"/>
<path d="M811.731 728.265C811.438 728.619 811.019 728.859 810.477 728.991C810.989 729.24 811.401 729.566 811.715 729.969C812.032 730.369 812.187 730.804 812.187 731.272V731.304C812.187 731.716 812.052 732.086 811.78 732.412H812.138C812.923 732.412 813.677 732.614 814.403 733.022C815.131 733.429 815.722 734.024 816.178 734.806C816.634 735.586 816.862 736.514 816.862 737.592C816.862 738.623 816.655 739.5 816.243 740.221C815.831 740.945 815.282 741.487 814.598 741.85C813.914 742.215 813.165 742.397 812.353 742.397C811.699 742.397 811.015 742.288 810.3 742.071C809.581 741.852 808.93 741.603 808.343 741.322L808.867 740.214C810.147 740.821 811.266 741.124 812.22 741.124C813.251 741.124 814.04 740.821 814.584 740.214C815.126 739.607 815.396 738.732 815.396 737.592C815.396 736.71 815.238 735.975 814.917 735.383C814.596 734.792 814.189 734.355 813.695 734.073C813.202 733.792 812.681 733.648 812.139 733.648C811.238 733.648 809.882 733.948 808.067 734.546L807.515 733.34C807.96 733.189 808.464 733.036 809.028 732.882C809.614 732.721 810.04 732.528 810.307 732.305C810.573 732.084 810.712 731.728 810.721 731.239C810.712 730.913 810.612 730.625 810.421 730.376C810.231 730.125 809.951 729.896 809.581 729.692C809.321 729.55 809.011 729.438 808.655 729.357C808.295 729.275 807.899 729.196 807.464 729.122L807.529 727.916C807.573 727.926 807.773 727.965 808.132 728.03C808.49 728.095 808.839 728.128 809.174 728.128C809.695 728.128 810.084 728.026 810.338 727.828C810.596 727.625 810.722 727.307 810.722 726.871C810.722 726.059 810.272 725.652 809.37 725.652C809.002 725.652 808.483 725.757 807.813 725.969C807.147 726.18 806.64 726.369 806.291 726.529L805.658 725.375C806.112 725.159 806.708 724.94 807.441 724.724C808.174 724.505 808.816 724.396 809.37 724.396C809.891 724.396 810.366 724.5 810.796 724.707C811.224 724.912 811.564 725.203 811.813 725.578C812.064 725.952 812.188 726.373 812.188 726.841V726.906C812.176 727.46 812.024 727.914 811.731 728.265Z" fill="white"/>
<path d="M810.12 716.416C811.551 717.361 812.405 719.283 812.678 722.182L811.242 722.541C811.212 722.182 811.14 721.693 811.033 721.075C810.781 721.009 810.495 720.977 810.169 720.977C809.32 720.977 808.264 721.17 806.991 721.554C805.72 721.94 804.391 722.431 803 723.029L802.269 721.922C803.747 721.238 805.155 720.7 806.495 720.309C807.838 719.918 808.976 719.723 809.906 719.723C810.223 719.723 810.488 719.744 810.707 719.788C810.13 717.952 809.18 717.035 807.854 717.035C806.779 717.035 805.753 717.072 804.768 717.149C803.786 717.226 802.574 717.349 801.129 717.524L800.852 716.221C802.218 716.046 803.351 715.92 804.25 715.837C805.143 715.755 806.048 715.716 806.96 715.716C807.351 715.716 807.645 715.721 807.84 715.732C808.827 715.721 809.555 715.585 810.023 715.325C810.488 715.064 810.723 714.597 810.723 713.924V713.761H812.189V713.94C812.189 715.211 811.5 716.037 810.12 716.416Z" fill="white"/>
<path d="M817.254 712.914H815.721L815.593 711.448H817.124L817.254 712.914ZM814.957 712.214L815.134 714.331L813.671 714.313L813.489 712.247H813.508L813.328 710.259L814.778 710.276L814.957 712.214ZM810.722 713.924V713.273C810.722 712.112 810.611 711.29 810.387 710.813C810.166 710.336 809.801 710.094 809.289 710.094C808.952 710.106 808.44 710.218 807.751 710.432C807.06 710.641 806.564 710.823 806.259 710.976L805.638 709.803C806.064 709.585 806.636 709.371 807.36 709.159C808.081 708.947 808.71 708.842 809.24 708.842C810.206 708.842 810.941 709.194 811.439 709.901C811.937 710.606 812.188 711.672 812.188 713.094V713.924L810.722 713.924Z" fill="white"/>
<path d="M811.732 688.474C811.439 688.826 811.02 689.068 810.478 689.198C810.987 689.447 811.401 689.773 811.716 690.175C812.032 690.578 812.188 691.013 812.188 691.478V691.511C812.188 691.925 812.053 692.293 811.781 692.619H812.139C812.923 692.619 813.677 692.821 814.403 693.228C815.131 693.635 815.723 694.231 816.179 695.013C816.635 695.795 816.863 696.723 816.863 697.798C816.863 698.829 816.656 699.706 816.244 700.428C815.832 701.151 815.283 701.694 814.599 702.059C813.915 702.422 813.165 702.604 812.351 702.604C811.7 702.604 811.015 702.494 810.301 702.278C809.582 702.061 808.93 701.812 808.344 701.528L808.865 700.421C810.147 701.03 811.266 701.333 812.221 701.333C813.251 701.333 814.04 701.03 814.582 700.421C815.127 699.813 815.397 698.938 815.397 697.798C815.397 696.919 815.239 696.183 814.917 695.59C814.596 694.999 814.187 694.562 813.696 694.28C813.203 693.998 812.681 693.856 812.139 693.856C811.239 693.856 809.882 694.157 808.067 694.752L807.513 693.547C807.96 693.396 808.465 693.244 809.028 693.091C809.614 692.928 810.04 692.735 810.308 692.514C810.573 692.29 810.711 691.934 810.722 691.446C810.711 691.12 810.61 690.831 810.42 690.582C810.231 690.333 809.952 690.103 809.582 689.898C809.321 689.756 809.012 689.647 808.656 689.563C808.295 689.482 807.897 689.405 807.464 689.328L807.529 688.123C807.574 688.134 807.774 688.172 808.132 688.237C808.491 688.302 808.84 688.334 809.175 688.334C809.696 688.334 810.085 688.234 810.338 688.034C810.596 687.832 810.722 687.515 810.722 687.08C810.722 686.266 810.273 685.858 809.37 685.858C809.003 685.858 808.481 685.966 807.814 686.175C807.148 686.389 806.639 686.575 806.292 686.738L805.656 685.581C806.113 685.365 806.708 685.149 807.441 684.93C808.174 684.714 808.817 684.604 809.37 684.604C809.892 684.604 810.366 684.709 810.794 684.914C811.225 685.121 811.565 685.409 811.814 685.784C812.063 686.161 812.188 686.582 812.188 687.047V687.113C812.177 687.666 812.025 688.12 811.732 688.474ZM803.636 689.051L803.457 686.934L804.923 686.95L805.102 689.019H805.086L805.265 691.006L803.816 690.99L803.636 689.051ZM801.34 688.351H802.871L803.001 689.817H801.47L801.34 688.351Z" fill="white"/>
<path d="M810.609 680.997C810.739 680.58 810.804 680.099 810.804 679.554C810.804 679.24 810.776 678.893 810.723 678.512C809.843 678.621 809.078 678.851 808.426 679.205C807.772 679.559 807.433 680.006 807.4 680.548C807.388 680.787 807.486 681.02 807.693 681.25C807.898 681.476 808.166 681.662 808.491 681.802C808.817 681.944 809.124 682.014 809.417 682.014C809.659 682.014 809.86 681.965 810.022 681.867C810.281 681.704 810.476 681.413 810.609 680.997ZM814.199 679.954C813.641 679.124 812.947 678.637 812.121 678.498C812.2 678.844 812.238 679.263 812.238 679.75C812.238 680.457 812.126 681.097 811.905 681.672C811.682 682.249 811.325 682.661 810.837 682.912C810.488 683.084 810.081 683.17 809.613 683.17C809.05 683.17 808.487 683.049 807.921 682.805C807.358 682.561 806.888 682.235 806.52 681.828C806.15 681.42 805.967 680.983 805.967 680.515C805.967 679.875 806.248 679.312 806.814 678.824C807.377 678.333 808.086 677.958 808.938 677.697C809.79 677.437 810.63 677.307 811.453 677.307C812.801 677.307 813.948 677.821 814.893 678.847C815.837 679.873 816.494 681.304 816.864 683.14L815.56 683.561C815.214 681.988 814.758 680.785 814.199 679.954Z" fill="white"/>
<path d="M811.895 672.193H812.137C812.779 672.193 813.405 672.384 814.019 672.763C814.634 673.142 815.187 673.666 815.683 674.334C816.176 675.004 816.569 675.753 816.863 676.591L815.592 677.145C815.353 676.451 815.038 675.821 814.648 675.255C814.257 674.69 813.838 674.248 813.393 673.929C812.947 673.608 812.53 673.447 812.137 673.447C811.585 673.447 810.226 673.724 808.065 674.278L807.595 673.024C808.16 672.849 808.709 672.71 809.24 672.6C809.784 672.437 810.166 672.242 810.389 672.014C810.61 671.786 810.722 671.481 810.722 671.102V670.988L811.455 670.906L812.188 670.988V671.102C812.188 671.514 812.09 671.877 811.895 672.193Z" fill="white"/>
<path d="M811.731 663.422C811.438 663.773 811.019 664.015 810.477 664.148C810.977 664.397 811.385 664.72 811.699 665.115C812.015 665.511 812.176 665.942 812.187 666.409V666.458C812.187 666.958 812.038 667.375 811.741 667.705C811.443 668.036 811.038 668.234 810.526 668.299C811.07 668.636 811.482 669.039 811.766 669.504C812.048 669.972 812.187 670.488 812.187 671.052V671.119L811.454 671.198L810.721 671.119V671.035C810.721 670.635 810.628 670.256 810.444 669.895C810.26 669.537 810.016 669.26 809.711 669.064C809.418 668.86 809.109 668.699 808.783 668.585C808.459 668.471 808.073 668.355 807.626 668.234L807.757 667.012C807.822 667.035 807.987 667.077 808.245 667.145C808.506 667.208 808.753 667.259 808.978 667.298C809.206 667.338 809.414 667.354 809.597 667.354C810.347 667.354 810.721 667.052 810.721 666.442V666.409C810.721 665.802 810.342 665.281 809.581 664.846C809.32 664.706 809.011 664.594 808.655 664.513C808.294 664.431 807.899 664.352 807.463 664.276L807.529 663.073C807.573 663.082 807.773 663.121 808.131 663.184C808.49 663.249 808.839 663.282 809.174 663.282C809.695 663.282 810.084 663.182 810.337 662.982C810.596 662.782 810.721 662.463 810.721 662.028C810.721 661.213 810.272 660.806 809.369 660.806C809.002 660.806 808.483 660.913 807.813 661.125C807.147 661.337 806.64 661.523 806.291 661.686L805.658 660.529C806.112 660.313 806.707 660.096 807.44 659.88C808.173 659.661 808.816 659.552 809.369 659.552C809.891 659.552 810.365 659.657 810.796 659.861C811.224 660.068 811.564 660.359 811.813 660.734C812.064 661.109 812.187 661.53 812.187 661.995V662.063C812.176 662.614 812.024 663.068 811.731 663.422Z" fill="white"/>
<path d="M925.915 682.617H926.156C926.799 682.617 927.425 682.808 928.039 683.188C928.653 683.567 929.207 684.091 929.703 684.758C930.196 685.428 930.589 686.18 930.882 687.015L929.612 687.569C929.372 686.874 929.058 686.245 928.667 685.68C928.276 685.114 927.857 684.672 927.413 684.353C926.966 684.032 926.55 683.872 926.156 683.872C925.605 683.872 924.246 684.148 922.084 684.702L921.614 683.448C922.18 683.274 922.729 683.134 923.259 683.025C923.804 682.862 924.185 682.666 924.409 682.438C924.63 682.21 924.742 681.905 924.742 681.526V681.412L925.475 681.331L926.208 681.412V681.526C926.208 681.938 926.11 682.303 925.915 682.617Z" fill="white"/>
<path d="M929.725 678.855L929.888 680.777H928.438C928.352 679.942 928.294 679.29 928.259 678.822L928.096 676.9H929.546C929.634 677.736 929.693 678.39 929.725 678.855ZM925.474 681.608L924.743 681.526V680.598C924.743 679.437 924.632 678.615 924.408 678.138C924.185 677.661 923.819 677.421 923.307 677.421C922.972 677.433 922.458 677.542 921.769 677.754C921.078 677.968 920.583 678.15 920.28 678.301L919.659 677.128C920.085 676.909 920.657 676.695 921.378 676.484C922.102 676.274 922.728 676.167 923.261 676.167C924.227 676.167 924.96 676.518 925.458 677.226C925.958 677.931 926.207 678.994 926.207 680.419V681.526L925.474 681.608Z" fill="white"/>
<path d="M925.826 672.877C925.57 673.312 925.189 673.617 924.677 673.799C924.167 673.978 923.492 674.066 922.657 674.066C921.419 674.066 920.016 674.089 918.445 674.138C916.877 674.187 915.779 674.262 915.148 674.359L914.871 673.056C915.425 672.97 916.393 672.903 917.78 672.854C919.164 672.805 920.421 672.779 921.549 672.779H922.234L922.804 672.795C923.315 672.795 923.702 672.751 923.967 672.665C924.235 672.579 924.43 672.411 924.553 672.167C924.679 671.923 924.742 671.558 924.742 671.069V670.987L925.475 670.906L926.208 670.987V671.069C926.208 671.839 926.08 672.442 925.826 672.877Z" fill="white"/>
<path d="M925.751 663.422C925.458 663.773 925.039 664.015 924.497 664.148C924.997 664.397 925.404 664.72 925.718 665.115C926.035 665.511 926.195 665.944 926.207 666.409V666.458C926.207 666.958 926.058 667.375 925.76 667.705C925.462 668.036 925.058 668.234 924.546 668.299C925.09 668.636 925.502 669.039 925.786 669.506C926.067 669.972 926.207 670.488 926.207 671.052V671.119L925.474 671.198L924.741 671.119V671.035C924.741 670.635 924.648 670.256 924.464 669.897C924.28 669.537 924.036 669.26 923.731 669.064C923.438 668.86 923.128 668.699 922.803 668.585C922.479 668.471 922.093 668.355 921.646 668.234L921.777 667.012C921.842 667.035 922.007 667.077 922.265 667.145C922.526 667.208 922.772 667.259 922.998 667.298C923.226 667.338 923.433 667.354 923.617 667.354C924.366 667.354 924.741 667.052 924.741 666.442V666.409C924.741 665.802 924.362 665.281 923.601 664.846C923.34 664.706 923.031 664.594 922.675 664.513C922.314 664.431 921.918 664.352 921.483 664.276L921.548 663.073C921.593 663.082 921.793 663.121 922.151 663.184C922.509 663.249 922.858 663.282 923.194 663.282C923.715 663.282 924.103 663.182 924.357 662.982C924.615 662.782 924.741 662.463 924.741 662.028C924.741 661.213 924.292 660.806 923.389 660.806C923.022 660.806 922.503 660.913 921.832 661.125C921.167 661.337 920.66 661.525 920.311 661.686L919.678 660.529C920.132 660.313 920.727 660.096 921.46 659.88C922.193 659.661 922.835 659.552 923.389 659.552C923.91 659.552 924.385 659.657 924.816 659.861C925.244 660.068 925.584 660.359 925.832 660.734C926.084 661.109 926.207 661.53 926.207 661.995V662.063C926.196 662.614 926.044 663.07 925.751 663.422Z" fill="white"/>
<path d="M992.326 643.897H38.5702V643.497V183.821" stroke="#D1D3D4" stroke-width="0.5817" stroke-miterlimit="10"/>
<path d="M574.468 643.897H560.504V566.129C560.504 562.271 563.631 559.146 567.487 559.146C571.343 559.146 574.468 562.271 574.468 566.129V643.897Z" fill="#FFD600"/>
<path d="M571.918 566.428C571.918 563.98 569.933 561.997 567.487 561.997C565.039 561.997 563.057 563.98 563.057 566.428C563.057 568.876 565.039 570.858 567.487 570.858C569.933 570.858 571.918 568.876 571.918 566.428Z" fill="white"/>
<path d="M588.431 643.897H574.467V558.846C574.467 554.99 577.595 551.865 581.45 551.865C585.306 551.865 588.431 554.99 588.431 558.846V643.897Z" fill="white"/>
<path d="M585.88 559.146C585.88 556.698 583.895 554.715 581.45 554.715C579.002 554.715 577.019 556.698 577.019 559.146C577.019 561.594 579.002 563.576 581.45 563.576C583.895 563.576 585.88 561.594 585.88 559.146Z" fill="#F9C213"/>
<path d="M602.394 643.897H588.43V515.732C588.43 511.876 591.558 508.751 595.413 508.751C599.269 508.751 602.394 511.876 602.394 515.732V643.897Z" fill="#BDBEBF"/>
<path d="M599.843 516.033C599.843 513.585 597.859 511.602 595.413 511.602C592.965 511.602 590.982 513.585 590.982 516.033C590.982 518.481 592.965 520.463 595.413 520.463C597.859 520.463 599.843 518.481 599.843 516.033Z" fill="#F9C213"/>
<path d="M117.991 643.897H104.029V259.462C104.029 255.607 107.154 252.481 111.01 252.481C114.865 252.481 117.991 255.607 117.991 259.462V643.897Z" fill="#FFD600"/>
<path d="M115.44 259.762C115.44 257.315 113.457 255.332 111.009 255.332C108.561 255.332 106.579 257.315 106.579 259.762C106.579 262.21 108.561 264.193 111.009 264.193C113.457 264.193 115.44 262.21 115.44 259.762Z" fill="white"/>
<path d="M131.953 643.897H117.99V365.38C117.99 361.522 121.117 358.396 124.973 358.396C128.828 358.396 131.953 361.522 131.953 365.38V643.897Z" fill="white"/>
<path d="M129.403 365.679C129.403 363.231 127.42 361.248 124.972 361.248C122.524 361.248 120.542 363.231 120.542 365.679C120.542 368.127 122.524 370.109 124.972 370.109C127.42 370.109 129.403 368.127 129.403 365.679Z" fill="#F9C213"/>
<path d="M145.916 643.897H131.955V340.384C131.955 336.528 135.08 333.403 138.936 333.403C142.791 333.403 145.916 336.528 145.916 340.384V643.897Z" fill="#BDBEBF"/>
<path d="M143.366 340.685C143.366 338.237 141.383 336.254 138.935 336.254C136.487 336.254 134.505 338.237 134.505 340.685C134.505 343.13 136.487 345.115 138.935 345.115C141.383 345.115 143.366 343.13 143.366 340.685Z" fill="#F9C213"/>
<path d="M232.11 643.897H218.146V470.855C218.146 466.999 221.273 463.874 225.129 463.874C228.985 463.874 232.11 466.999 232.11 470.855V643.897Z" fill="#FFD600"/>
<path d="M229.559 471.155C229.559 468.708 227.574 466.725 225.129 466.725C222.681 466.725 220.698 468.708 220.698 471.155C220.698 473.603 222.681 475.586 225.129 475.586C227.574 475.586 229.559 473.603 229.559 471.155Z" fill="white"/>
<path d="M246.073 643.897H232.109V356.528C232.109 352.672 235.236 349.545 239.092 349.545C242.948 349.545 246.073 352.672 246.073 356.528V643.897Z" fill="white"/>
<path d="M243.522 356.828C243.522 354.38 241.537 352.397 239.092 352.397C236.644 352.397 234.661 354.38 234.661 356.828C234.661 359.276 236.644 361.258 239.092 361.258C241.537 361.258 243.522 359.276 243.522 356.828Z" fill="#F9C213"/>
<path d="M260.036 643.897H246.072V333.324C246.072 329.468 249.199 326.341 253.055 326.341C256.911 326.341 260.036 329.468 260.036 333.324V643.897Z" fill="#BDBEBF"/>
<path d="M257.485 333.623C257.485 331.175 255.5 329.193 253.055 329.193C250.607 329.193 248.624 331.175 248.624 333.623C248.624 336.071 250.607 338.054 253.055 338.054C255.5 338.054 257.485 336.071 257.485 333.623Z" fill="#F9C213"/>
<path d="M460.348 643.897H446.387V454.897C446.387 451.041 449.512 447.916 453.368 447.916C457.223 447.916 460.348 451.041 460.348 454.897V643.897Z" fill="#FFD600"/>
<path d="M457.798 455.198C457.798 452.75 455.813 450.767 453.367 450.767C450.92 450.767 448.937 452.75 448.937 455.198C448.937 457.646 450.919 459.628 453.367 459.628C455.813 459.628 457.798 457.646 457.798 455.198Z" fill="white"/>
<path d="M474.311 643.897H460.348V475.785C460.348 471.932 463.475 468.805 467.331 468.805C471.186 468.805 474.311 471.932 474.311 475.785V643.897Z" fill="white"/>
<path d="M471.761 476.088C471.761 473.64 469.776 471.657 467.33 471.657C464.882 471.657 462.9 473.64 462.9 476.088C462.9 478.535 464.882 480.518 467.33 480.518C469.776 480.518 471.761 478.535 471.761 476.088Z" fill="#F9C213"/>
<path d="M488.274 643.897H474.31V520.928C474.31 517.072 477.438 513.947 481.294 513.947C485.149 513.947 488.274 517.072 488.274 520.928V643.897Z" fill="#BDBEBF"/>
<path d="M485.724 521.228C485.724 518.782 483.739 516.797 481.293 516.797C478.845 516.797 476.863 518.782 476.863 521.228C476.863 523.676 478.845 525.658 481.293 525.658C483.739 525.658 485.724 523.676 485.724 521.228Z" fill="#F9C213"/>
<path d="M346.229 643.897H332.266V448.125C332.266 444.27 335.393 441.145 339.249 441.145C343.104 441.145 346.229 444.27 346.229 448.125V643.897Z" fill="#FFD600"/>
<path d="M343.678 448.426C343.678 445.978 341.696 443.995 339.248 443.995C336.8 443.995 334.818 445.978 334.818 448.426C334.818 450.874 336.8 452.856 339.248 452.856C341.696 452.856 343.678 450.874 343.678 448.426Z" fill="white"/>
<path d="M360.192 643.897H346.228V384.463C346.228 380.609 349.356 377.482 353.211 377.482C357.067 377.482 360.192 380.609 360.192 384.463V643.897Z" fill="white"/>
<path d="M357.642 384.763C357.642 382.318 355.659 380.333 353.211 380.333C350.763 380.333 348.781 382.318 348.781 384.763C348.781 387.211 350.763 389.194 353.211 389.194C355.659 389.194 357.642 387.211 357.642 384.763Z" fill="#F9C213"/>
<path d="M374.155 643.897H360.191V349.468C360.191 345.612 363.319 342.487 367.174 342.487C371.03 342.487 374.155 345.612 374.155 349.468V643.897Z" fill="#BDBEBF"/>
<path d="M371.605 349.769C371.605 347.323 369.62 345.338 367.174 345.338C364.726 345.338 362.744 347.323 362.744 349.769C362.744 352.217 364.726 354.199 367.174 354.199C369.62 354.199 371.605 352.217 371.605 349.769Z" fill="#F9C213"/>
<path d="M688.587 643.897H674.623V610.117C674.623 606.264 677.751 603.136 681.606 603.136C685.462 603.136 688.587 606.264 688.587 610.117V643.897Z" fill="#FFD600"/>
<path d="M686.037 610.418C686.037 607.972 684.052 605.987 681.606 605.987C679.158 605.987 677.176 607.972 677.176 610.418C677.176 612.866 679.158 614.848 681.606 614.848C684.052 614.848 686.037 612.866 686.037 610.418Z" fill="white"/>
<path d="M702.55 643.897H688.586V569.244C688.586 565.389 691.714 562.261 695.57 562.261C699.425 562.261 702.55 565.389 702.55 569.244V643.897Z" fill="white"/>
<path d="M700 569.544C700 567.097 698.015 565.114 695.569 565.114C693.121 565.114 691.139 567.097 691.139 569.544C691.139 571.992 693.121 573.975 695.569 573.975C698.015 573.975 700 571.992 700 569.544Z" fill="#F9C213"/>
<path d="M716.513 643.897H702.549V561.3C702.549 557.445 705.677 554.317 709.532 554.317C713.388 554.317 716.513 557.445 716.513 561.3V643.897Z" fill="#BDBEBF"/>
<path d="M713.963 561.6C713.963 559.152 711.978 557.17 709.532 557.17C707.084 557.17 705.102 559.152 705.102 561.6C705.102 564.048 707.084 566.031 709.532 566.031C711.978 566.031 713.963 564.048 713.963 561.6Z" fill="#F9C213"/>
<path d="M802.707 643.897H788.743V611.651C788.743 607.795 791.87 604.67 795.726 604.67C799.582 604.67 802.707 607.795 802.707 611.651V643.897Z" fill="#FFD600"/>
<path d="M800.156 611.951C800.156 609.505 798.171 607.52 795.726 607.52C793.278 607.52 791.295 609.505 791.295 611.951C791.295 614.399 793.278 616.381 795.726 616.381C798.171 616.381 800.156 614.399 800.156 611.951Z" fill="white"/>
<path d="M816.669 643.897H802.708V613.107C802.708 609.249 805.833 606.124 809.689 606.124C813.545 606.124 816.669 609.249 816.669 613.107V643.897Z" fill="white"/>
<path d="M814.119 613.406C814.119 610.958 812.134 608.976 809.689 608.976C807.241 608.976 805.258 610.958 805.258 613.406C805.258 615.854 807.241 617.837 809.689 617.837C812.134 617.837 814.119 615.854 814.119 613.406Z" fill="#F9C213"/>
<path d="M830.633 643.897H816.669V613.107C816.669 609.249 819.796 606.124 823.652 606.124C827.507 606.124 830.633 609.249 830.633 613.107V643.897Z" fill="#BDBEBF"/>
<path d="M828.082 613.406C828.082 610.958 826.097 608.976 823.652 608.976C821.204 608.976 819.221 610.958 819.221 613.406C819.221 615.854 821.204 617.837 823.652 617.837C826.097 617.837 828.082 615.854 828.082 613.406Z" fill="#F9C213"/>
<path d="M916.826 643.897H902.865V638.054C902.865 634.198 905.989 631.073 909.845 631.073C913.701 631.073 916.826 634.198 916.826 638.054V643.897Z" fill="#FFD600"/>
<path d="M914.276 638.355C914.276 635.907 912.291 633.924 909.845 633.924C907.397 633.924 905.415 635.907 905.415 638.355C905.415 640.801 907.397 642.785 909.845 642.785C912.291 642.785 914.276 640.8 914.276 638.355Z" fill="white"/>
<path d="M930.789 643.897H916.825V635.727C916.825 631.872 919.953 628.747 923.808 628.747C927.664 628.747 930.789 631.872 930.789 635.727V643.897Z" fill="white"/>
<path d="M928.239 636.028C928.239 633.58 926.254 631.597 923.808 631.597C921.36 631.597 919.378 633.58 919.378 636.028C919.378 638.474 921.36 640.458 923.808 640.458C926.254 640.458 928.239 638.474 928.239 636.028Z" fill="#F9C213"/>
<path d="M944.752 643.897H930.788V632.877C930.788 629.021 933.915 625.896 937.771 625.896C941.627 625.896 944.752 629.021 944.752 632.877V643.897Z" fill="#BDBEBF"/>
<path d="M942.201 633.176C942.201 630.73 940.219 628.746 937.771 628.746C935.323 628.746 933.34 630.73 933.34 633.176C933.34 635.624 935.323 637.607 937.771 637.607C940.219 637.607 942.201 635.624 942.201 633.176Z" fill="#F9C213"/>
</svg>
